<svg xmlns="http://www.w3.org/2000/svg" width="1200" height="630" viewBox="0 0 1200 630">
  <defs>
    <pattern id="grid" width="40" height="40" patternUnits="userSpaceOnUse">
      <path d="M 40 0 L 0 0 0 40" fill="none" stroke="#ffffff06" stroke-width="0.5"/>
    </pattern>
    <linearGradient id="accent" x1="0" y1="0" x2="1" y2="1">
      <stop offset="0%" stop-color="#3b82f6" stop-opacity="0.15"/>
      <stop offset="100%" stop-color="#8b5cf6" stop-opacity="0.08"/>
    </linearGradient>
    <linearGradient id="line-grad" x1="0" y1="0" x2="1" y2="0">
      <stop offset="0%" stop-color="#3b82f600"/>
      <stop offset="20%" stop-color="#3b82f640"/>
      <stop offset="80%" stop-color="#8b5cf640"/>
      <stop offset="100%" stop-color="#8b5cf600"/>
    </linearGradient>
  </defs>

  <!-- Background -->
  <rect width="1200" height="630" fill="#0a0a0f"/>
  <rect width="1200" height="630" fill="url(#grid)"/>
  <rect width="1200" height="630" fill="url(#accent)"/>

  <!-- Decorative lines -->
  <line x1="100" y1="200" x2="1100" y2="200" stroke="url(#line-grad)" stroke-width="0.5"/>
  <line x1="100" y1="460" x2="1100" y2="460" stroke="url(#line-grad)" stroke-width="0.5"/>

  <!-- Title -->
  <text x="600" y="290" text-anchor="middle" font-family="'Instrument Sans', 'Inter', system-ui, sans-serif" font-size="80" font-weight="700" fill="#f0f0f5" letter-spacing="-2">exemplar</text>

  <!-- Subtitle -->
  <text x="600" y="345" text-anchor="middle" font-family="'Instrument Sans', 'Inter', system-ui, sans-serif" font-size="24" font-weight="400" fill="#8888a0" letter-spacing="1">The engineering stack that governs itself</text>

  <!-- Stats -->
  <text x="600" y="430" text-anchor="middle" font-family="'JetBrains Mono', 'SF Mono', monospace" font-size="18" font-weight="400" fill="#555570" letter-spacing="3">18 projects  ·  15,000+ tests  ·  40 papers</text>

  <!-- Corner accents -->
  <rect x="60" y="60" width="24" height="2" fill="#3b82f650" rx="1"/>
  <rect x="60" y="60" width="2" height="24" fill="#3b82f650" rx="1"/>
  <rect x="1116" y="60" width="24" height="2" fill="#8b5cf650" rx="1"/>
  <rect x="1138" y="60" width="2" height="24" fill="#8b5cf650" rx="1"/>
  <rect x="60" y="568" width="24" height="2" fill="#3b82f650" rx="1"/>
  <rect x="60" y="546" width="2" height="24" fill="#3b82f650" rx="1"/>
  <rect x="1116" y="568" width="24" height="2" fill="#8b5cf650" rx="1"/>
  <rect x="1138" y="546" width="2" height="24" fill="#8b5cf650" rx="1"/>
</svg>
